<svg width="45" height="45" viewBox="0 0 45 45" fill="none" xmlns="http://www.w3.org/2000/svg">
<g clip-path="url(#clip0)">
<path d="M16.5 26.7339V41.25L14.3572 40.1108L1.5 33.2663V18.7501L16.5 26.7339Z" fill="#2D3A80"/>
<path d="M14.2501 25.5V40.0725L3 34.1776V19.605L14.2501 25.5Z" fill="#5E77FF"/>
<path d="M3 19.5001V34.5L0.75 33.3225V18.0001L3 19.5001Z" fill="white"/>
<path d="M44.2499 12.0001V27.0001L41.9999 28.155L16.5 41.25V26.2501L44.2499 12.0001Z" fill="#2D3A80"/>
<path d="M41.9999 13.5001V28.155L16.5 41.25V26.595L41.9999 13.5001Z" fill="#5E77FF"/>
<path d="M44.25 12L16.5001 26.2501L0.75 18.0001L1.05753 17.8426L28.5 3.75012L41.6925 10.6576L44.25 12Z" fill="#2D3A80"/>
<path d="M41.6925 10.6576L14.2502 24.7501L3.59264 19.1701L1.05762 17.8426L28.1926 3.90762L28.5001 3.75012L41.6925 10.6576Z" fill="#5E77FF"/>
<path d="M30.7501 5.25003L3.59264 19.17L1.05762 17.8425L28.1926 3.90759L30.7501 5.25003Z" fill="white"/>
<path d="M15 21C17.0711 21 18.75 20.1605 18.75 19.125C18.75 18.0895 17.0711 17.2501 15 17.2501C12.9289 17.2501 11.25 18.0895 11.25 19.125C11.25 20.1605 12.9289 21 15 21Z" fill="#2D3A80"/>
<path d="M22.875 16.8751C24.9461 16.8751 26.625 16.0356 26.625 15.0001C26.625 13.9646 24.9461 13.1251 22.875 13.1251C20.8039 13.1251 19.125 13.9646 19.125 15.0001C19.125 16.0356 20.8039 16.8751 22.875 16.8751Z" fill="#2D3A80"/>
<path d="M30.75 12.75C32.8211 12.75 34.5 11.9105 34.5 10.875C34.5 9.83951 32.8211 9.00006 30.75 9.00006C28.6789 9.00006 27 9.83951 27 10.875C27 11.9105 28.6789 12.75 30.75 12.75Z" fill="#2D3A80"/>
<path d="M16.4992 42.0001C16.3783 42.0001 16.2591 41.9707 16.1521 41.9144L0.402099 33.6644C0.154863 33.535 0 33.2791 0 33.0001V27.0001C0 26.5859 0.335829 26.2501 0.749969 26.2501C1.16411 26.2501 1.49994 26.5859 1.49994 27.0001V32.5463L16.8478 40.5858C17.1536 40.746 17.3106 41.0944 17.2278 41.4296C17.1453 41.7648 16.8445 42.0003 16.4992 42.0001Z" fill="black"/>
<path d="M0.749969 21.7501C0.335742 21.7501 0 21.4143 0 21.0001V18.0002C0 17.5859 0.335829 17.2502 0.749969 17.2502C1.16411 17.2502 1.49994 17.586 1.49994 18.0002V21.0001C1.50003 21.4143 1.1642 21.7501 0.749969 21.7501Z" fill="black"/>
<path d="M0.749081 24.75C0.550536 24.7471 0.360429 24.6694 0.216552 24.5325C0.186582 24.4948 0.156523 24.4574 0.126465 24.4201C0.0979881 24.3782 0.0752245 24.3328 0.0587011 24.2849C0.03708 24.2424 0.0220507 24.1967 0.0140527 24.1497C0.00526366 24.1002 0.000253904 24.0501 -0.000976562 24C0.00174804 23.8014 0.0794432 23.6112 0.216552 23.4674C0.43373 23.2576 0.754266 23.1958 1.03393 23.3096C1.12481 23.3477 1.20857 23.4011 1.28152 23.4674C1.41845 23.6112 1.49606 23.8014 1.49905 24C1.49764 24.0501 1.49263 24.1002 1.48402 24.1497C1.47567 24.1967 1.46047 24.2423 1.43893 24.2849C1.4225 24.3327 1.39965 24.3782 1.37117 24.4201C1.34155 24.4574 1.31149 24.4948 1.28143 24.5325C1.2084 24.5986 1.12472 24.6518 1.03385 24.69C0.943934 24.7284 0.847078 24.7488 0.749081 24.75Z" fill="black"/>
<path d="M16.5002 42.0001C16.086 42.0001 15.7502 41.6643 15.7502 41.2501V26.2501C15.7502 25.8359 16.086 25.5002 16.5002 25.5002C16.9144 25.5002 17.2502 25.8359 17.2502 26.2501V40.0219L43.5002 26.542V12.0001C43.5002 11.5859 43.8359 11.2501 44.2501 11.2501C44.6644 11.2501 45.0001 11.586 45.0001 12.0001V27.0001C45.0002 27.2813 44.8429 27.5389 44.5928 27.6674L16.8429 41.9173C16.7368 41.9717 16.6194 42 16.5002 42.0001Z" fill="black"/>
<path d="M16.5009 27.0001C16.3797 27.0001 16.2604 26.9707 16.1531 26.9144L0.403081 18.6643C0.154966 18.5344 -7.27765e-05 18.2771 0.00098191 17.997C0.0020366 17.7169 0.159097 17.4608 0.408267 17.3328L28.1581 3.08287C28.3751 2.97133 28.6328 2.97248 28.8488 3.08577L44.5987 11.3358C44.8469 11.4657 45.0019 11.723 45.0008 12.0031C44.9998 12.2832 44.8427 12.5394 44.5936 12.6673L16.8437 26.9173C16.7376 26.9718 16.6201 27.0001 16.5009 27.0001ZM2.37983 18.0067L16.5042 25.4052L42.622 11.9935L28.4975 4.59493L2.37983 18.0067Z" fill="black"/>
<path d="M15 21.7501C12.4346 21.7501 10.5 20.6214 10.5 19.1251C10.5 17.6288 12.4347 16.5001 15 16.5001C17.5652 16.5001 19.5 17.6288 19.5 19.1251C19.5 20.6214 17.5652 21.7501 15 21.7501ZM15 18.0001C13.1389 18.0001 12 18.7284 12 19.1251C12 19.5217 13.1389 20.2501 15 20.2501C16.8611 20.2501 18 19.5217 18 19.1251C18 18.7284 16.8611 18.0001 15 18.0001Z" fill="black"/>
<path d="M22.875 17.625C20.3096 17.625 18.375 16.4964 18.375 15C18.375 13.5037 20.3096 12.375 22.875 12.375C25.4404 12.375 27.375 13.5037 27.375 15C27.375 16.4964 25.4403 17.625 22.875 17.625ZM22.875 13.8751C21.0139 13.8751 19.875 14.6036 19.875 15.0001C19.875 15.3968 21.0139 16.1251 22.875 16.1251C24.7361 16.1251 25.875 15.3968 25.875 15.0001C25.875 14.6035 24.7361 13.8751 22.875 13.8751Z" fill="black"/>
<path d="M30.75 13.5001C28.1846 13.5001 26.25 12.3714 26.25 10.875C26.25 9.37869 28.1847 8.25 30.75 8.25C33.3153 8.25 35.25 9.37869 35.25 10.875C35.25 12.3714 33.3153 13.5001 30.75 13.5001ZM30.75 9.75003C28.8889 9.75003 27.75 10.4784 27.75 10.875C27.75 11.2717 28.8889 12 30.75 12C32.6111 12 33.75 11.2717 33.75 10.875C33.75 10.4785 32.6111 9.75003 30.75 9.75003Z" fill="black"/>
</g>
<defs>
<clipPath id="clip0">
<rect width="45" height="45" fill="white"/>
</clipPath>
</defs>
</svg>
